<svg version="1.1" xmlns="http://www.w3.org/2000/svg" xmlns:xlink="http://www.w3.org/1999/xlink" x="0" y="0" width="195" height="210" viewBox="0, 0, 195, 210">
  <defs>
    <clipPath id="Clip_1">
      <path d="M-226.723,-375.038 L493.334,-375.038 L493.334,585.038 L-226.723,585.038 z"/>
    </clipPath>
  </defs>
  <g id="Layer_2">
    <g>
      <path d="M41.203,16.687 C15.136,72.188 4.584,117.511 0.434,162.675 C0.19,180.74 5.987,188.995 20.25,198.331 C33.994,207.407 141.875,217.002 171.957,201.961 C188.186,193.846 190.109,189.254 194.518,173.435 C195.815,149.318 174.031,35.473 167.289,23.544 C123.53,-8.922 63.473,-3.98 41.203,16.687 z" fill="#80A0FF"/>
      <path d="M95.741,107.433 C95.741,107.433 101.49,86.264 133.898,86.787 C166.305,87.309 173.884,106.91 175.714,120.501 C177.543,134.091 172.187,162.149 147.488,165.976 C128.932,168.85 116.387,167.021 98.093,148.988 C81.366,165.714 69.867,173.065 47.13,167.021 C26.483,161.533 17.441,141.22 19.165,123.637 C20.472,110.308 35.63,84.434 59.674,85.741 C85,87.118 93.389,100.377 95.741,107.433 z" fill="#ACA8A8"/>
      <path d="M95.218,116.58 C108.286,108.74 109.592,94.104 138.341,96.195 C167.089,98.286 169.18,121.023 169.18,127.034 C169.18,133.045 166.566,158.919 139.647,159.703 C112.728,160.487 104.888,141.67 98.616,141.67 C92.381,141.67 84.241,161.271 59.152,160.749 C34.062,160.226 26.744,142.715 27.006,125.728 C27.267,108.74 45.279,95.411 59.936,95.411 C77.185,95.411 81.105,104.297 95.218,116.58 z" fill="#FFF3BB"/>
      <path d="M101.229,129.691 L77.185,148.988 L100.445,175.384 L122.398,152.908 L101.229,129.691 z" fill="#D70000"/>
      <path d="M121.664,130.882 L121.956,130.917 L122.579,130.985 L123.248,131.051 L123.963,131.112 L124.719,131.167 L125.514,131.218 L126.772,131.281 L128.559,131.335 L130.451,131.348 L132.427,131.313 L134.463,131.22 L136.538,131.063 L138.635,130.823 L140.726,130.507 L142.795,130.091 L144.33,129.705 L145.342,129.407 L146.328,129.083 L147.297,128.719 L148.244,128.32 L149.168,127.875 L150.064,127.382 L150.927,126.819 L151.363,126.504 L151.363,126.504 C151.906,126.188 152.355,125.575 152.367,125.134 C152.379,124.693 151.95,124.591 151.408,124.906 C151.408,124.906 151.408,124.906 151.408,124.906 L151.106,125.02 L150.434,125.275 L149.717,125.547 L148.957,125.816 L148.156,126.081 L147.316,126.335 L146.44,126.582 L145.543,126.81 L144.137,127.136 L142.173,127.529 L140.144,127.875 L138.082,128.166 L136.004,128.42 L133.941,128.632 L131.916,128.81 L129.955,128.959 L128.081,129.083 L126.748,129.164 L125.899,129.214 L125.087,129.26 L124.313,129.305 L123.58,129.349 L122.892,129.391 L122.565,129.413 C122.565,129.413 122.565,129.413 122.565,129.413 C122.244,129.407 121.783,129.73 121.534,130.136 C121.285,130.541 121.343,130.876 121.664,130.882 L121.664,130.882" fill="#000000"/>
      <path d="M46.763,126.81 L47.143,126.8 L47.899,126.795 L49.068,126.827 L50.69,126.929 L52.37,127.099 L54.104,127.323 L55.878,127.6 L57.684,127.915 L59.507,128.267 L62.255,128.839 L64.976,129.446 L66.758,129.858 L68.502,130.265 L70.196,130.663 L71.831,131.041 L73.396,131.392 L74.152,131.555 L74.152,131.555 C74.815,131.679 75.881,131.032 76.533,130.111 C77.185,129.189 77.176,128.342 76.513,128.218 L75.748,128.097 L74.15,127.819 L72.482,127.502 L70.753,127.157 L68.975,126.792 L67.155,126.419 L64.372,125.865 L61.554,125.351 L59.666,125.049 L57.785,124.789 L55.917,124.585 L54.074,124.442 L52.263,124.376 L50.501,124.392 L49.213,124.468 L48.376,124.55 L47.974,124.6 C47.974,124.6 47.974,124.6 47.974,124.6 C47.462,124.639 46.775,125.166 46.441,125.777 C46.106,126.387 46.25,126.85 46.763,126.81 L46.763,126.81" fill="#000000"/>
    </g>
  </g>
</svg>
